HIERARCHY
ROOT hips
{
  OFFSET 0 10.6860622 2.3727825e-15
  CHANNELS 6 Xposition Yposition Zposition Yrotation Xrotation Zrotation
  JOINT leftUpperLeg
  {
    OFFSET 0.6642549969 -0.9402397400000004 0
    CHANNELS 3 Yrotation Xrotation Zrotation
    JOINT leftLowerLeg
    {
      OFFSET 0 -3.997221335632195 0
      CHANNELS 3 Yrotation Xrotation Zrotation
      JOINT leftFoot
      {
        OFFSET -0.13777839790000004 -4.6145792000000005 -0.22186036399999998
        CHANNELS 3 Yrotation Xrotation Zrotation
        JOINT leftToes
        {
          OFFSET -0.03777410834999995 -0.9130806927000008 0.85230013
          CHANNELS 3 Yrotation Xrotation Zrotation
          End Site
          {
            OFFSET -0.03777410834999995 -0.9130806927000008 0.85230013
          }
        }
      }
    }
  }
  JOINT rightUpperLeg
  {
    OFFSET -0.6642778626 -0.9402397400000004 0
    CHANNELS 3 Yrotation Xrotation Zrotation
    JOINT rightLowerLeg
    {
      OFFSET 0 -3.997221452859387 0
      CHANNELS 3 Yrotation Xrotation Zrotation
      JOINT rightFoot
      {
        OFFSET 0.1377926176 -4.6145792000000005 -0.22185782299999995
        CHANNELS 3 Yrotation Xrotation Zrotation
        JOINT rightToes
        {
          OFFSET 0.037780746850000047 -0.9130806927000008 0.85230167
          CHANNELS 3 Yrotation Xrotation Zrotation
          End Site
          {
            OFFSET 0.037780746850000047 -0.9130806927000008 0.85230167
          }
        }
      }
    }
  }
  JOINT spine
  {
    OFFSET 0 0.13988381660000015 0
    CHANNELS 3 Yrotation Xrotation Zrotation
    JOINT chest
    {
      OFFSET 0 0.6191039003973773 0
      CHANNELS 3 Yrotation Xrotation Zrotation
      JOINT upperChest
      {
        OFFSET 0 0.9855186130586943 0
        CHANNELS 3 Yrotation Xrotation Zrotation
        JOINT leftShoulder
        {
          OFFSET 0.1807663869 1.5087829790000005 0
          CHANNELS 3 Yrotation Xrotation Zrotation
          JOINT leftUpperArm
          {
            OFFSET 0.5985063006419806 0 0
            CHANNELS 3 Yrotation Xrotation Zrotation
            JOINT leftLowerArm
            {
              OFFSET 2.2993332369501065 0 0
              CHANNELS 3 Yrotation Xrotation Zrotation
              JOINT leftHand
              {
                OFFSET 2.395047042602395 0 0
                CHANNELS 3 Yrotation Xrotation Zrotation
                JOINT leftIndexProximal
                {
                  OFFSET 0.5766295810000004 0.04556643899499946 0.17265095988184
                  CHANNELS 3 Yrotation Xrotation Zrotation
                  JOINT leftIndexIntermediate
                  {
                    OFFSET 0.2957229000000008 -0.019352197700001517 -0.007932640616999987
                    CHANNELS 3 Yrotation Xrotation Zrotation
                    JOINT leftIndexDistal
                    {
                      OFFSET 0.19008243099999922 -0.012484908149998475 -0.002786250786000012
                      CHANNELS 3 Yrotation Xrotation Zrotation
                      End Site
                      {
                        OFFSET 0.19008243099999922 -0.012484908149998475 -0.002786250786000012
                      }
                    }
                  }
                }
                JOINT leftMiddleProximal
                {
                  OFFSET 0.5834975091000001 0.0524350405149987 0.02204081888183999
                  CHANNELS 3 Yrotation Xrotation Zrotation
                  JOINT leftMiddleIntermediate
                  {
                    OFFSET 0.33880573540000003 -0.019871473270000717 -0.00000971183179999946
                    CHANNELS 3 Yrotation Xrotation Zrotation
                    JOINT leftMiddleDistal
                    {
                      OFFSET 0.20676022730000088 -0.012221336379999448 0.0001471936708000235
                      CHANNELS 3 Yrotation Xrotation Zrotation
                      End Site
                      {
                        OFFSET 0.20676022730000088 -0.012221336379999448 0.0001471936708000235
                      }
                    }
                  }
                }
                JOINT leftLittleProximal
                {
                  OFFSET 0.5344154683999995 -0.012880921405001189 -0.24414037221816004
                  CHANNELS 3 Yrotation Xrotation Zrotation
                  JOINT leftLittleIntermediate
                  {
                    OFFSET 0.21758961730000093 -0.011650919939999227 0.011893592810000034
                    CHANNELS 3 Yrotation Xrotation Zrotation
                    JOINT leftLittleDistal
                    {
                      OFFSET 0.1475273964999999 -0.008152365682999818 0.006001092492999946
                      CHANNELS 3 Yrotation Xrotation Zrotation
                      End Site
                      {
                        OFFSET 0.1475273964999999 -0.008152365682999818 0.006001092492999946
                      }
                    }
                  }
                }
                JOINT leftRingProximal
                {
                  OFFSET 0.5799399463000003 0.026911854694997794 -0.12150566991816003
                  CHANNELS 3 Yrotation Xrotation Zrotation
                  JOINT leftRingIntermediate
                  {
                    OFFSET 0.26167887460000006 -0.013480186499999602 0.010996293000000053
                    CHANNELS 3 Yrotation Xrotation Zrotation
                    JOINT leftRingDistal
                    {
                      OFFSET 0.17667108799999987 -0.008990287899999228 0.0055541023999999065
                      CHANNELS 3 Yrotation Xrotation Zrotation
                      End Site
                      {
                        OFFSET 0.17667108799999987 -0.008990287899999228 0.0055541023999999065
                      }
                    }
                  }
                }
                JOINT leftThumbProximal
                {
                  OFFSET 0.11018806699999972 -0.09448718900500053 0.17047963138184
                  CHANNELS 3 Yrotation Xrotation Zrotation
                  JOINT leftThumbIntermediate
                  {
                    OFFSET 0.31062601459999983 -0.08126270900000132 0.15443142000000007
                    CHANNELS 3 Yrotation Xrotation Zrotation
                    JOINT leftThumbDistal
                    {
                      OFFSET 0.21627175790000086 -0.08833193599999878 0.018771167799999988
                      CHANNELS 3 Yrotation Xrotation Zrotation
                      End Site
                      {
                        OFFSET 0.21627175790000086 -0.08833193599999878 0.018771167799999988
                      }
                    }
                  }
                }
              }
            }
          }
        }
        JOINT neck
        {
          OFFSET 0 1.5463305265074576 0
          CHANNELS 3 Yrotation Xrotation Zrotation
          JOINT head
          {
            OFFSET 0 0.8456443600000344 0
            CHANNELS 3 Yrotation Xrotation Zrotation
            JOINT leftEye
            {
              OFFSET 0.30408573140000006 0.5104519199999995 0.1276382305
              CHANNELS 3 Yrotation Xrotation Zrotation
              End Site
              {
                OFFSET 0.30408573140000006 0.5104519199999995 0.1276382305
              }
            }
            JOINT rightEye
            {
              OFFSET -0.30409491089999996 0.5104519199999995 0.1276379445
              CHANNELS 3 Yrotation Xrotation Zrotation
              End Site
              {
                OFFSET -0.30409491089999996 0.5104519199999995 0.1276379445
              }
            }
            JOINT jaw
            {
              OFFSET -3.155239131000001e-7 -0.11984121820000082 0.60178107
              CHANNELS 3 Yrotation Xrotation Zrotation
              End Site
              {
                OFFSET -3.155239131000001e-7 -0.11984121820000082 0.60178107
              }
            }
          }
        }
        JOINT rightShoulder
        {
          OFFSET -0.1807303465 1.5087829790000005 0
          CHANNELS 3 Yrotation Xrotation Zrotation
          JOINT rightUpperArm
          {
            OFFSET -0.5985063796536958 0 0
            CHANNELS 3 Yrotation Xrotation Zrotation
            JOINT rightLowerArm
            {
              OFFSET -2.2993322059002854 0 0
              CHANNELS 3 Yrotation Xrotation Zrotation
              JOINT rightHand
              {
                OFFSET -2.395045314457259 0 0
                CHANNELS 3 Yrotation Xrotation Zrotation
                JOINT rightIndexProximal
                {
                  OFFSET -0.5764487688300002 0.0441371204405987 0.17361932004999997
                  CHANNELS 3 Yrotation Xrotation Zrotation
                  JOINT rightIndexIntermediate
                  {
                    OFFSET -0.29573011380000047 -0.01934826376999843 -0.007698921482999974
                    CHANNELS 3 Yrotation Xrotation Zrotation
                    JOINT rightIndexDistal
                    {
                      OFFSET -0.19008373999999884 -0.012503266380000655 -0.0026365778999999897
                      CHANNELS 3 Yrotation Xrotation Zrotation
                      End Site
                      {
                        OFFSET -0.19008373999999884 -0.012503266380000655 -0.0026365778999999897
                      }
                    }
                  }
                }
                JOINT rightMiddleProximal
                {
                  OFFSET -0.5834852037300005 0.05211639405060153 0.02307162440000001
                  CHANNELS 3 Yrotation Xrotation Zrotation
                  JOINT rightMiddleIntermediate
                  {
                    OFFSET -0.33880114510000003 -0.019952774050000954 0.0002455003561999819
                    CHANNELS 3 Yrotation Xrotation Zrotation
                    JOINT rightMiddleDistal
                    {
                      OFFSET -0.20675694929999955 -0.012273788999999091 0.00030209124000002766
                      CHANNELS 3 Yrotation Xrotation Zrotation
                      End Site
                      {
                        OFFSET -0.20675694929999955 -0.012273788999999091 0.00030209124000002766
                      }
                    }
                  }
                }
                JOINT rightLittleProximal
                {
                  OFFSET -0.5346811737299992 -0.011214256288399227 -0.24363941305000003
                  CHANNELS 3 Yrotation Xrotation Zrotation
                  JOINT rightLittleIntermediate
                  {
                    OFFSET -0.21757715980000092 -0.011771559690000988 0.01201554387
                    CHANNELS 3 Yrotation Xrotation Zrotation
                    JOINT rightLittleDistal
                    {
                      OFFSET -0.1475201849000004 -0.00822055339600003 0.006082065407000015
                      CHANNELS 3 Yrotation Xrotation Zrotation
                      End Site
                      {
                        OFFSET -0.1475201849000004 -0.00822055339600003 0.006082065407000015
                      }
                    }
                  }
                }
                JOINT rightRingProximal
                {
                  OFFSET -0.5800810755299999 0.027657985680600072 -0.12066365025000003
                  CHANNELS 3 Yrotation Xrotation Zrotation
                  JOINT rightRingIntermediate
                  {
                    OFFSET -0.26166445029999974 -0.013623118409999302 0.011164098990000045
                    CHANNELS 3 Yrotation Xrotation Zrotation
                    JOINT rightRingDistal
                    {
                      OFFSET -0.17666387530000027 -0.009072900100000503 0.005668185599999959
                      CHANNELS 3 Yrotation Xrotation Zrotation
                      End Site
                      {
                        OFFSET -0.17666387530000027 -0.009072900100000503 0.005668185599999959
                      }
                    }
                  }
                }
                JOINT rightThumbProximal
                {
                  OFFSET -0.10997596379000074 -0.09577489355940072 0.16989765924999997
                  CHANNELS 3 Yrotation Xrotation Zrotation
                  JOINT rightThumbIntermediate
                  {
                    OFFSET -0.31036620999999986 -0.08229339117999834 0.15440884469999996
                    CHANNELS 3 Yrotation Xrotation Zrotation
                    JOINT rightThumbDistal
                    {
                      OFFSET -0.21631306399999906 -0.08825326400000111 0.018656797720000014
                      CHANNELS 3 Yrotation Xrotation Zrotation
                      End Site
                      {
                        OFFSET -0.21631306399999906 -0.08825326400000111 0.018656797720000014
                      }
                    }
                  }
                }
              }
            }
          }
        }
      }
    }
  }
}
MOTION
Frames: 5
Frame Time: 0.03333333333333333
-2.545112377479435 -10.45212851297823 4.213900370624654 71.99713946635268 -39.98809539868034 89.99517026574613 94.6905316336838 -72.02794140110277 -26.35681509054857 26.510916967823643 78.62588989345274 37.78667618527624 -33.855484554877364 37.61962269385895 2.580142243392055 0 0 0 -30.512201670881 -39.386782878858355 -0.11410179046149949 -9.298700110728687 57.580585235304845 -12.126866931720604 7.823194981803573 15.333412816933386 7.313534814342661 0 0 0 -7.835127523196802 29.267812531652876 -21.100713782201662 -14.326505964161335 10.876909462679075 -12.124522755327801 0 0 0 -18.495126833485802 9.598286265212417 -27.024109155482083 72.77788652349707 -45.94545579425434 -83.35343831839099 4.783912675182028 -31.495745328393138 -119.64422128423463 34.55279570353804 -49.61064143970036 -17.540887310391707 0 0 0 0 0 0 0 0 0 0 0 0 0 0 0 0 0 0 0 0 0 0 0 0 0 0 0 0 0 0 0 0 0 0 0 0 0 0 0 0 0 0 0 0 0 7.0701183890074475 -3.395487892820233 -27.8259629922304 29.518450554781158 -7.05946351528913 -4.955968350224 0 0 0 0 0 0 0 0 0 7.740356193517734 3.5310813047306597 -0.8440370596507858 18.54846894973103 29.902113602396543 9.015800697721724 17.7718025742582 -3.5718855251641206 -18.15520864262658 19.696693240838044 13.349867997969142 -8.918139698559752 0 0 0 0 0 0 0 0 0 0 0 0 0 0 0 0 0 0 0 0 0 0 0 0 0 0 0 0 0 0 0 0 0 0 0 0 0 0 0 0 0 0 0 0 0
-2.545112377479435 -10.45212851297823 4.213900370624654 71.99713946635268 -39.98809539868034 89.99517026574613 94.6905316336838 -72.02794140110277 -26.35681509054857 26.510916967823643 78.62588989345274 37.78667618527624 -33.855484554877364 37.61962269385895 2.580142243392055 0 0 0 -30.366799148460885 -39.381591145317444 -0.13635076254088277 -9.298700110728687 57.580585235304845 -12.126866931720604 7.7285008191519555 15.338489113527341 7.390284198205101 0 0 0 -7.823781791004328 29.119289123175754 -21.077346919605652 -14.326505964161335 10.876909462679075 -12.124522755327801 0 0 0 -18.437145832986975 9.579337542142174 -26.918450716682788 72.77656141747335 -45.92023667024371 -83.35300219487709 4.743143906556512 -31.43253760667472 -119.75628304936046 34.33474209065567 -49.70437049022232 -17.368163583304057 0 0 0 0 0 0 0 0 0 0 0 0 0 0 0 0 0 0 0 0 0 0 0 0 0 0 0 0 0 0 0 0 0 0 0 0 0 0 0 0 0 0 0 0 0 7.068677974827701 -3.197099022223542 -27.801261758614295 29.507845237198527 -6.907219105054848 -4.869109394599269 0 0 0 0 0 0 0 0 0 7.884663613697274 3.518362484986 -0.8556546244870168 18.54846894973103 29.902113602396543 9.015800697721724 17.7718025742582 -3.5718855251641206 -18.15520864262658 19.696693240838044 13.349867997969142 -8.918139698559752 0 0 0 0 0 0 0 0 0 0 0 0 0 0 0 0 0 0 0 0 0 0 0 0 0 0 0 0 0 0 0 0 0 0 0 0 0 0 0 0 0 0 0 0 0
-2.545112377479435 -10.45212851297823 4.213900370624654 71.99713946635268 -39.98809539868034 89.99517026574613 94.6905316336838 -72.02794140110277 -26.35681509054857 26.510916967823643 78.62588989345274 37.78667618527624 -33.855484554877364 37.61962269385895 2.580142243392055 0 0 0 -30.221388763379338 -39.376360035894486 -0.15858804922975417 -9.298700110728687 57.580585235304845 -12.126866931720604 7.633802276132335 15.343689479709896 7.467034018992784 0 0 0 -7.812517375123872 28.97074175022653 -21.054038606254103 -14.326505964161335 10.876909462679075 -12.124522755327801 0 0 0 -18.379202537713248 9.560280786005954 -26.812811431939874 72.77523667171688 -45.895024096896215 -83.35256297714828 4.7022717350241265 -31.369380473299252 -119.86833878706283 34.11577805668011 -49.797677573826185 -17.194517701471664 0 0 0 0 0 0 0 0 0 0 0 0 0 0 0 0 0 0 0 0 0 0 0 0 0 0 0 0 0 0 0 0 0 0 0 0 0 0 0 0 0 0 0 0 0 7.067323126334456 -2.998666653897529 -27.776563751125753 29.497469033446453 -6.7549321229797 -4.782290616911952 0 0 0 0 0 0 0 0 0 8.028991524630603 3.505672066183543 -0.8673052213443183 18.54846894973103 29.902113602396543 9.015800697721724 17.7718025742582 -3.5718855251641206 -18.15520864262658 19.696693240838044 13.349867997969142 -8.918139698559752 0 0 0 0 0 0 0 0 0 0 0 0 0 0 0 0 0 0 0 0 0 0 0 0 0 0 0 0 0 0 0 0 0 0 0 0 0 0 0 0 0 0 0 0 0
-2.545112377479435 -10.45212851297823 4.213900370624654 71.99713946635268 -39.98809539868034 89.99517026574613 94.6905316336838 -72.02794140110277 -26.35681509054857 26.510916967823643 78.62588989345274 37.78667618527624 -33.855484554877364 37.61962269385895 2.580142243392055 0 0 0 -30.075989902536516 -39.37108072406235 -0.18080637123587137 -9.298700110728687 57.580585235304845 -12.126866931720604 7.539108567785191 15.349013924792295 7.543777564671051 0 0 0 -7.8013382371984745 28.822189009611904 -21.030797783480427 -14.326505964161335 10.876909462679075 -12.124522755327801 0 0 0 -18.321299102382405 9.541119475866711 -26.707198758652485 72.77391256600694 -45.86980825102492 -83.35212602616845 4.66128316480273 -31.306293734883162 -119.98037247173126 33.895952750942406 -49.890549894609535 -17.019984527046184 0 0 0 0 0 0 0 0 0 0 0 0 0 0 0 0 0 0 0 0 0 0 0 0 0 0 0 0 0 0 0 0 0 0 0 0 0 0 0 0 0 0 0 0 0 7.066054591559204 -2.8002335232508924 -27.75187253270333 29.48732957761074 -6.60262989703138 -4.695527090990549 0 0 0 0 0 0 0 0 0 8.173318747481822 3.4930109019052606 -0.8789876253983279 18.54846894973103 29.902113602396543 9.015800697721724 17.7718025742582 -3.5718855251641206 -18.15520864262658 19.696693240838044 13.349867997969142 -8.918139698559752 0 0 0 0 0 0 0 0 0 0 0 0 0 0 0 0 0 0 0 0 0 0 0 0 0 0 0 0 0 0 0 0 0 0 0 0 0 0 0 0 0 0 0 0 0
-2.545112377479435 -10.45212851297823 4.213900370624654 71.99713946635268 -39.98809539868034 89.99517026574613 94.6905316336838 -72.02794140110277 -26.35681509054857 26.510916967823643 78.62588989345274 37.78667618527624 -33.855484554877364 37.61962269385895 2.580142243392055 0 0 0 -29.97906469331418 -39.36753784488677 -0.19560734273542846 -9.298700110728687 57.580585235304845 -12.126866931720604 7.47597514190132 15.352627967054907 7.594939295924533 0 0 0 -7.793933173579957 28.723145626600473 -21.015341272728865 -14.326505964161335 10.876909462679075 -12.124522755327801 0 0 0 -18.282711895817478 9.528285844534732 -26.63679667379433 72.77303266551377 -45.853002406445555 -83.3518376386381 4.633882893064461 -31.2642700268326 -120.05505779917912 33.74890966536959 -49.95224394110818 -16.90312348672618 0 0 0 0 0 0 0 0 0 0 0 0 0 0 0 0 0 0 0 0 0 0 0 0 0 0 0 0 0 0 0 0 0 0 0 0 0 0 0 0 0 0 0 0 0 7.065256247027021 -2.6679189308176023 -27.735416829090365 29.48070217581567 -6.501071908302729 -4.637706280738985 0 0 0 0 0 0 0 0 0 8.26954725440606 3.4845851893486306 -0.8867943383945285 18.54846894973103 29.902113602396543 9.015800697721724 17.7718025742582 -3.5718855251641206 -18.15520864262658 19.696693240838044 13.349867997969142 -8.918139698559752 0 0 0 0 0 0 0 0 0 0 0 0 0 0 0 0 0 0 0 0 0 0 0 0 0 0 0 0 0 0 0 0 0 0 0 0 0 0 0 0 0 0 0 0 0
